<svg width="368" height="667" viewBox="0 0 368 667" fill="none" xmlns="http://www.w3.org/2000/svg">
<path d="M243.268 149.808C311.687 110.541 401.12 83.6207 450.735 116.632C500.486 149.985 510.181 243.183 495.671 317.029C481.502 390.707 443.026 445.288 395.485 496.559C348.048 547.576 291.34 595.792 245.42 589.537C199.397 583.538 164.297 523.409 138.503 464.635C112.948 405.948 96.9382 348.702 112.533 294.527C127.991 240.011 175.191 188.907 243.268 149.808Z" fill="#33304D"/>
<path d="M251.031 153.762C314.03 117.6 396.376 92.8054 442.055 123.199C487.859 153.908 496.777 239.724 483.41 307.723C470.357 375.568 434.926 425.829 391.149 473.043C347.467 520.023 295.25 564.424 252.971 558.669C210.597 553.147 178.285 497.783 154.541 443.665C131.017 389.627 116.281 336.916 130.645 287.03C144.883 236.83 188.346 189.77 251.031 153.762Z" fill="#4A345F"/>
<path d="M255.911 168.599C313.49 135.548 388.753 112.886 430.503 140.666C472.367 168.732 480.518 247.167 468.3 309.317C456.371 371.325 423.987 417.263 383.976 460.415C344.051 503.354 296.327 543.936 257.684 538.675C218.955 533.629 189.422 483.027 167.721 433.565C146.221 384.175 132.753 335.998 145.881 290.403C158.894 244.521 198.618 201.509 255.911 168.599Z" fill="#69346B"/>
<path d="M255.611 193.427C307.771 163.487 375.95 142.958 413.771 168.123C451.695 193.548 459.078 264.6 448.011 320.901C437.204 377.073 407.868 418.687 371.623 457.778C335.456 496.676 292.223 533.438 257.217 528.673C222.133 524.101 195.38 478.262 175.721 433.455C156.245 388.714 144.044 345.071 155.937 303.767C167.725 262.204 203.71 223.24 255.611 193.427Z" fill="#8B3070"/>
<path d="M270.309 200.061C317.051 173.231 378.146 154.835 412.037 177.385C446.021 200.169 452.637 263.839 442.72 314.29C433.036 364.626 406.748 401.917 374.268 436.947C341.859 471.803 303.118 504.746 271.749 500.475C240.31 496.379 216.336 455.302 198.72 415.15C181.267 375.057 170.334 335.949 180.991 298.937C191.555 261.691 223.801 226.776 270.309 200.061Z" fill="#AD256B"/>
<path d="M275.189 214.898C316.511 191.179 370.523 174.916 400.485 194.851C430.528 214.993 436.378 271.282 427.61 315.883C419.049 360.384 395.808 393.351 367.095 424.319C338.443 455.134 304.193 484.257 276.462 480.482C248.668 476.86 227.474 440.546 211.9 405.05C196.47 369.605 186.805 335.031 196.226 302.31C205.566 269.383 234.073 238.516 275.189 214.898Z" fill="#CC195E"/>
<path d="M286.056 210.734C321.959 190.125 368.887 175.995 394.92 193.316C421.023 210.817 426.105 259.723 418.487 298.475C411.049 337.139 390.856 365.783 365.908 392.69C341.014 419.463 311.257 444.767 287.162 441.487C263.013 438.34 244.599 406.789 231.067 375.947C217.661 345.151 209.264 315.111 217.449 286.682C225.564 258.073 250.332 231.254 286.056 210.734Z" fill="#E51949"/>
<path d="M289.596 229.05C320.079 211.553 359.924 199.555 382.027 214.262C404.191 229.121 408.505 270.645 402.038 303.548C395.722 336.376 378.577 360.696 357.395 383.541C336.259 406.273 310.993 427.758 290.535 424.973C270.031 422.301 254.396 395.512 242.907 369.326C231.525 343.179 224.395 317.673 231.345 293.535C238.234 269.244 259.265 246.473 289.596 229.05Z" fill="#EF233C"/>
</svg>
