<svg width="220" height="386" viewBox="0 0 220 386" fill="none" xmlns="http://www.w3.org/2000/svg">
<path d="M124.369 93.7457C172.487 143.507 214.914 215.563 198.234 269.312C181.298 323.28 105.276 358.702 40.1159 366.971C-24.8285 375.495 -79.148 356.847 -132.703 329.162C-186.021 301.495 -239.048 264.754 -243.992 221.989C-249.172 179.205 -206.526 130.616 -162.951 90.7194C-119.396 51.0605 -74.9317 20.3314 -26.0302 18.6814C23.1277 16.8121 76.4663 44.241 124.369 93.7457Z" fill="#33304D"/>
<path d="M123.084 102.035C167.391 147.855 206.457 214.203 191.098 263.695C175.504 313.388 105.504 346.005 45.5043 353.618C-14.2959 361.468 -64.3129 344.297 -113.626 318.804C-162.721 293.329 -211.547 259.498 -216.1 220.12C-220.869 180.725 -181.602 135.985 -141.478 99.2485C-101.373 62.7309 -60.4306 34.4358 -15.4025 32.9165C29.8617 31.1953 78.9755 56.4516 123.084 102.035Z" fill="#4A345F"/>
<path d="M111.739 110.617C152.235 152.495 187.94 213.137 173.903 258.371C159.65 303.789 95.671 333.6 40.833 340.559C-13.8231 347.733 -59.5376 332.039 -104.608 308.74C-149.48 285.456 -194.107 254.535 -198.267 218.544C-202.627 182.538 -166.737 141.647 -130.065 108.07C-93.4097 74.6939 -55.9892 48.8329 -14.8345 47.4442C26.536 45.8711 71.4249 68.9548 111.739 110.617Z" fill="#69346B"/>
<path d="M90.5154 117.276C127.2 155.213 159.545 210.147 146.828 251.124C133.917 292.268 75.9598 319.273 26.283 325.577C-23.229 332.076 -64.641 317.859 -105.47 296.752C-146.119 275.66 -186.545 247.649 -190.314 215.046C-194.263 182.428 -161.751 145.385 -128.53 114.969C-95.3251 84.7342 -61.4265 61.3071 -24.1452 60.0492C13.3316 58.6241 53.9957 79.5353 90.5154 117.276Z" fill="#8B3070"/>
<path d="M88.687 132.212C121.56 166.207 150.544 215.434 139.149 252.153C127.579 289.022 75.6436 313.222 31.128 318.871C-13.2399 324.694 -50.3493 311.955 -86.9362 293.041C-123.362 274.14 -159.588 249.039 -162.965 219.823C-166.504 190.595 -137.37 157.401 -107.601 130.144C-77.8454 103.051 -47.4688 82.0577 -14.0609 80.9304C19.5223 79.6534 55.9615 98.392 88.687 132.212Z" fill="#AD256B"/>
<path d="M77.3422 140.794C106.404 170.848 132.028 214.367 121.954 246.829C111.725 279.423 65.8111 300.817 26.4567 305.811C-12.7671 310.96 -45.5739 299.697 -77.9189 282.976C-110.121 266.266 -142.147 244.076 -145.133 218.248C-148.262 192.408 -122.505 163.062 -96.1876 138.966C-69.8821 115.014 -43.0274 96.4546 -13.4929 95.458C16.1965 94.329 48.411 110.895 77.3422 140.794Z" fill="#CC195E"/>
<path d="M83.8109 149.717C109.061 175.83 131.324 213.641 122.572 241.846C113.685 270.166 73.7921 288.754 39.599 293.093C5.5193 297.566 -22.985 287.78 -51.088 273.252C-79.0671 258.734 -106.893 239.454 -109.487 217.013C-112.205 194.562 -89.827 169.065 -66.9609 148.129C-44.1053 127.318 -20.7725 111.193 4.88867 110.327C30.6844 109.346 58.674 123.74 83.8109 149.717Z" fill="#E51949"/>
<path d="M69.1431 158.028C90.582 180.198 109.485 212.303 102.053 236.25C94.5075 260.295 60.6365 276.078 31.6046 279.761C2.66903 283.56 -21.5328 275.251 -45.3938 262.916C-69.1496 250.589 -92.7751 234.219 -94.9779 215.166C-97.2859 196.103 -78.2854 174.455 -58.8707 156.679C-39.465 139.009 -19.6542 125.318 2.13361 124.583C24.0356 123.75 47.8004 135.971 69.1431 158.028Z" fill="#EF233C"/>
</svg>
