<svg width="591" height="666" viewBox="0 0 591 666" fill="none" xmlns="http://www.w3.org/2000/svg">
<path d="M243.217 148.949C311.636 109.682 401.069 82.762 450.684 115.773C500.435 149.126 510.13 242.324 495.62 316.17C481.451 389.848 442.974 444.429 395.434 495.7C347.996 546.717 291.289 594.933 245.369 588.679C199.346 582.679 164.246 522.551 138.452 463.776C112.897 405.089 96.887 347.843 112.481 293.668C127.94 239.152 175.139 188.048 243.217 148.949Z" fill="#33304D"/>
<path d="M250.979 152.903C313.978 116.741 396.325 91.9465 442.004 122.34C487.808 153.049 496.726 238.866 483.359 306.864C470.306 374.709 434.874 424.97 391.098 472.184C347.416 519.164 295.199 563.566 252.92 557.81C210.546 552.288 178.233 496.924 154.49 442.806C130.966 388.768 116.23 336.057 130.594 286.171C144.832 235.971 188.295 188.911 250.979 152.903Z" fill="#4A345F"/>
<path d="M255.859 167.74C313.439 134.689 388.702 112.027 430.452 139.807C472.316 167.873 480.466 246.308 468.249 308.458C456.319 370.466 423.936 416.404 383.925 459.556C344 502.495 296.275 543.077 257.633 537.816C218.904 532.77 189.371 482.168 167.67 432.706C146.17 383.316 132.702 335.139 145.829 289.544C158.843 243.662 198.567 200.65 255.859 167.74Z" fill="#69346B"/>
<path d="M255.56 192.568C307.72 162.628 375.899 142.099 413.72 167.264C451.644 192.689 459.027 263.742 447.96 320.042C437.153 376.214 407.817 417.828 371.572 456.919C335.405 495.817 292.172 532.579 257.166 527.814C222.082 523.242 195.329 477.403 175.67 432.596C156.194 387.855 143.993 344.212 155.885 302.908C167.674 261.345 203.659 222.381 255.56 192.568Z" fill="#8B3070"/>
<path d="M270.258 199.202C316.999 172.372 378.095 153.976 411.986 176.526C445.97 199.31 452.586 262.98 442.669 313.431C432.984 363.767 406.696 401.058 374.217 436.088C341.808 470.944 303.066 503.887 271.698 499.616C240.259 495.52 216.285 454.443 198.669 414.291C181.216 374.198 170.283 335.09 180.94 298.078C191.504 260.832 223.75 225.917 270.258 199.202Z" fill="#AD256B"/>
<path d="M275.138 214.039C316.46 190.32 370.472 174.057 400.434 193.993C430.477 214.135 436.326 270.423 427.559 315.024C418.997 359.525 395.757 392.492 367.044 423.46C338.392 454.275 304.142 483.398 276.411 479.623C248.617 476.002 227.423 439.687 211.849 404.191C196.419 368.746 186.754 334.172 196.175 301.451C205.515 268.524 234.022 237.657 275.138 214.039Z" fill="#CC195E"/>
<path d="M286.005 209.875C321.908 189.267 368.836 175.136 394.868 192.457C420.972 209.958 426.054 258.864 418.436 297.616C410.997 336.28 390.805 364.924 365.857 391.831C340.963 418.604 311.205 443.908 287.111 440.628C262.962 437.482 244.547 405.93 231.016 375.089C217.61 344.293 209.212 314.253 217.398 285.823C225.512 257.215 250.281 230.395 286.005 209.875Z" fill="#E51949"/>
<path d="M289.545 228.191C320.028 210.694 359.873 198.696 381.976 213.403C404.139 228.262 408.454 269.786 401.986 302.689C395.671 335.517 378.526 359.837 357.344 382.682C336.208 405.414 310.941 426.899 290.484 424.114C269.98 421.442 254.345 394.653 242.856 368.467C231.474 342.32 224.344 316.814 231.294 292.676C238.183 268.385 259.213 245.614 289.545 228.191Z" fill="#EF233C"/>
</svg>
