<svg width="477" height="386" viewBox="0 0 477 386" fill="none" xmlns="http://www.w3.org/2000/svg">
<path d="M380.617 93.3489C428.736 143.11 471.162 215.166 454.482 268.915C437.546 322.883 361.525 358.305 296.364 366.574C231.42 375.099 177.101 356.45 123.546 328.765C70.2272 301.098 17.201 264.357 12.257 221.592C7.07675 178.808 49.7224 130.219 93.2975 90.3225C136.853 50.6636 181.317 19.9346 230.218 18.2845C279.376 16.4153 332.715 43.8442 380.617 93.3489Z" fill="#33304D"/>
<path d="M379.332 101.638C423.64 147.458 462.705 213.806 447.347 263.298C431.752 312.991 361.752 345.608 301.753 353.221C241.953 361.071 191.936 343.9 142.623 318.407C93.5275 292.932 44.7013 259.101 40.149 219.723C35.3791 180.328 74.6468 135.588 114.77 98.8514C154.876 62.3338 195.818 34.0387 240.846 32.5194C286.11 30.7982 335.224 56.0545 379.332 101.638Z" fill="#4A345F"/>
<path d="M367.987 110.22C408.483 152.098 444.188 212.74 430.151 257.974C415.898 303.392 351.92 333.203 297.081 340.162C242.425 347.336 196.711 331.642 151.64 308.343C106.768 285.059 62.1419 254.138 57.9811 218.147C53.6215 182.141 89.5115 141.25 126.184 107.673C162.839 74.2969 200.259 48.4359 241.414 47.0472C282.784 45.4741 327.673 68.5578 367.987 110.22Z" fill="#69346B"/>
<path d="M346.764 116.879C383.448 154.816 415.793 209.75 403.077 250.727C390.165 291.871 332.208 318.876 282.532 325.18C233.02 331.679 191.608 317.462 150.779 296.355C110.13 275.263 69.7039 247.252 65.9348 214.649C61.9855 182.031 94.4975 144.989 127.718 114.572C160.923 84.3372 194.822 60.9102 232.103 59.6522C269.58 58.2271 310.244 79.1383 346.764 116.879Z" fill="#8B3070"/>
<path d="M344.936 131.815C377.809 165.81 406.793 215.037 395.398 251.756C383.828 288.625 331.892 312.825 287.377 318.474C243.009 324.298 205.899 311.558 169.312 292.644C132.887 273.743 96.661 248.643 93.2834 219.427C89.7444 190.198 118.879 157.004 148.648 129.748C178.403 102.654 208.78 81.6608 242.188 80.5335C275.771 79.2565 312.21 97.9951 344.936 131.815Z" fill="#AD256B"/>
<path d="M333.591 140.397C362.652 170.451 388.276 213.97 378.202 246.432C367.974 279.026 322.06 300.42 282.705 305.414C243.481 310.562 210.675 299.3 178.33 282.579C146.127 265.869 114.102 243.679 111.116 217.85C107.987 192.011 133.743 162.665 160.061 138.569C186.366 114.617 213.221 96.0575 242.756 95.0609C272.445 93.9319 304.659 110.498 333.591 140.397Z" fill="#CC195E"/>
<path d="M340.059 149.32C365.31 175.433 387.573 213.244 378.82 241.449C369.933 269.769 330.041 288.357 295.848 292.696C261.768 297.169 233.264 287.384 205.161 272.856C177.182 258.337 149.356 239.057 146.761 216.616C144.043 194.165 166.422 168.668 189.288 147.732C212.143 126.921 235.476 110.796 261.137 109.93C286.933 108.949 314.923 123.343 340.059 149.32Z" fill="#E51949"/>
<path d="M325.392 157.631C346.831 179.801 365.733 211.906 358.302 235.853C350.756 259.898 316.885 275.681 287.853 279.365C258.918 283.163 234.716 274.854 210.855 262.519C187.099 250.192 163.473 233.822 161.271 214.769C158.963 195.706 177.963 174.058 197.378 156.282C216.784 138.612 236.594 124.921 258.382 124.186C280.284 123.353 304.049 135.574 325.392 157.631Z" fill="#EF233C"/>
</svg>
